# xmcd
#
# Track frame offsets:
#	150
#	13780
#	26607
#	41265
#	56070
#	65230
#	74460
#	87010
#	102062
#	112762
#	125385
#	139337
#	156847
#	172917
#	185970
#	198960
#	213660
#	227695
#	240712
#	253670
#	266185
#	282255
#
# Disc length: 3924 seconds
#
# Revision: 1
# Processed by: cddbd v1.5.2PL0 Copyright (c) Steve Scherf et al.
# Submitted via: audiograbber 1.83.01
#
DISCID=430f5216
DTITLE=HOME MADE COUNTRY - HOME MADE COUNTRY
DYEAR=1900
DGENRE=
TTITLE0=BEFORE THE NEXT TEARDROP FALLS
TTITLE1=RUBY DON'T TAKE YOUR LOVE TO TOWN
TTITLE2=LITTLE ROSA
TTITLE3=TINY BUBBLES
TTITLE4=LOADED PISTOLS
TTITLE5=COLD COLD HEART
TTITLE6=DADDY DADDY
TTITLE7=SILVER TREADS AND GOLDEN NEEDLES
TTITLE8=TORTURE
TTITLE9=16 CANDLES
TTITLE10=TAR AND CEMENT
TTITLE11=TEARS ON THE TELEPHONE
TTITLE12=CRYING
TTITLE13=PICTURES AND PAPER
TTITLE14=LOVE,LOVE,LOVE
TTITLE15=DOES ANY BODY MISS ME
TTITLE16=FACE OF AN ANGEL
TTITLE17=BICYCLE BILL
TTITLE18=CRYSTAL CHANDELIER
TTITLE19=I FALL TO PIECES
TTITLE20=ONE DAY AT A TIME
TTITLE21=THE DOOR IS ALWAYS OPEN
EXTD=
EXTT0=
EXTT1=
EXTT2=
EXTT3=
EXTT4=
EXTT5=
EXTT6=
EXTT7=
EXTT8=
EXTT9=
EXTT10=
EXTT11=
EXTT12=
EXTT13=
EXTT14=
EXTT15=
EXTT16=
EXTT17=
EXTT18=
EXTT19=
EXTT20=
EXTT21=
PLAYORDER=
